<svg id="Layer_1" data-name="Layer 1" xmlns="http://www.w3.org/2000/svg" viewBox="0 0 1231.58 292.49">
  <path d="M195,92.42A75.41,75.41,0,0,0,119.71,17.1H39.49a21.5,21.5,0,0,0,0,43h80.22a32.32,32.32,0,1,1,0,64.64H39.49A21.5,21.5,0,0,0,26,163l134,107.64A21.5,21.5,0,0,0,187,237.13L100.6,167.74h19.11A75.41,75.41,0,0,0,195,92.42ZM1205.55,237.13l-86.4-69.39h19.11a75.32,75.32,0,1,0,0-150.64h-80.21a21.5,21.5,0,0,0,0,43h80.21a32.32,32.32,0,1,1,0,64.64h-80.21A21.51,21.51,0,0,0,1044.58,163l134,107.64a21.5,21.5,0,1,0,26.93-33.52ZM378.66,124.74H237.53a21.5,21.5,0,1,0,0,43H378.66a21.5,21.5,0,0,0,0-43Zm0-107.64H237.53a21.5,21.5,0,0,0,0,43H378.66a21.5,21.5,0,0,0,0-43Zm0,215.29H237.53a21.5,21.5,0,1,0,0,43H378.66a21.5,21.5,0,0,0,0-43Zm615.39,0H852.92a21.5,21.5,0,0,0,0,43H994.05a21.5,21.5,0,0,0,0-43Zm0-215.29H852.92a21.5,21.5,0,0,0,0,43H994.05a21.5,21.5,0,0,0,0-43Zm0,107.64H852.92a21.5,21.5,0,1,0,0,43H994.05a21.5,21.5,0,0,0,0-43ZM583.79,17.1a21.49,21.49,0,0,0-21.5,21.5V181.88L460.64,26.81A21.5,21.5,0,0,0,421.16,38.6V253.89a21.5,21.5,0,0,0,43,0V110.61L565.81,265.68a21.5,21.5,0,0,0,39.48-11.79V38.6A21.5,21.5,0,0,0,583.79,17.1Zm205.13,0H647.79a21.5,21.5,0,0,0,0,43H788.92a21.5,21.5,0,0,0,0-43Zm-70.57,55a21.51,21.51,0,0,0-21.5,21.5V253.89a21.5,21.5,0,0,0,43,0V93.64A21.5,21.5,0,0,0,718.35,72.14Z" style="fill: #fff"/>
</svg>
